<svg width="16" height="15" viewBox="0 0 16 15" fill="none" xmlns="http://www.w3.org/2000/svg">
<path d="M14.922 14.9996C14.7297 15.0055 14.5412 14.9422 14.3879 14.8202C14.2347 14.6982 14.126 14.525 14.0799 14.3293C13.7007 12.7557 12.8657 11.3436 11.6895 10.2871C10.5134 9.2305 9.05374 8.5812 7.51111 8.42837V9.41626C7.51097 9.72523 7.4238 10.0273 7.26052 10.2846C7.09723 10.5419 6.86509 10.7431 6.59316 10.8628C6.29829 11.0048 5.97053 11.0545 5.64932 11.006C5.3281 10.9575 5.02711 10.8128 4.78254 10.5894L0.521248 6.69955C0.357843 6.55381 0.226605 6.37265 0.136607 6.16857C0.0466098 5.9645 0 5.7424 0 5.51761C0 5.29282 0.0466098 5.07071 0.136607 4.86664C0.226605 4.66256 0.357843 4.4814 0.521248 4.33566L4.78254 0.437006C5.03033 0.209713 5.33631 0.0635038 5.66261 0.0164717C5.98892 -0.0305604 6.32123 0.0236492 6.61843 0.172392C6.89035 0.29216 7.1225 0.493297 7.28578 0.750613C7.44907 1.00793 7.53624 1.30999 7.53637 1.61895V2.65095C9.82384 2.83618 11.9619 3.91269 13.5288 5.66805C15.0956 7.4234 15.9773 9.7301 16 12.133C15.9988 12.8735 15.9112 13.6111 15.7389 14.3293C15.6928 14.525 15.5841 14.6982 15.4309 14.8202C15.2777 14.9422 15.0892 15.0055 14.8968 14.9996H14.922Z" fill="white"/>
</svg>
