<svg width="20" height="20" viewBox="0 0 20 20" fill="none" xmlns="http://www.w3.org/2000/svg">
<g clip-path="url(#clip0_1:67)">
<path d="M17.435 15.8347H3.18502C2.74802 15.8347 2.39336 16.1894 2.39336 16.6264C2.39336 17.0634 2.74802 17.4181 3.18502 17.4181H17.435C17.872 17.4181 18.2267 17.0634 18.2267 16.6264C18.2267 16.1894 17.872 15.8347 17.435 15.8347Z" fill="#FFFAFA"/>
<path d="M8.07755 15.0424C8.67368 15.0424 9.2698 14.8152 9.72343 14.3615L15.6981 8.38684C16.0077 8.0773 16.0077 7.57697 15.6981 7.26742L9.18035 0.749631C8.8708 0.440089 8.37047 0.440089 8.06093 0.749631L2.08543 6.72355C1.17818 7.6308 1.17818 9.10805 2.08543 10.0153L6.43089 14.3608C6.8853 14.8152 7.48143 15.0424 8.07755 15.0424V15.0424ZM8.62064 2.42796L14.019 7.82634L13.9272 7.91817H3.15576C3.17476 7.89442 3.18347 7.86513 3.20564 7.84297L8.62064 2.42796Z" fill="#FFFAFA"/>
<path d="M14.2684 12.9982C14.2684 14.1255 15.1567 15.043 16.2476 15.043C17.3385 15.043 18.2268 14.1255 18.2268 12.9982C18.2268 12.0893 17.0915 10.2962 16.7432 9.76897C16.5239 9.43488 15.9713 9.43488 15.752 9.76897C15.4037 10.2962 14.2684 12.0893 14.2684 12.9982V12.9982Z" fill="#FFFAFA"/>
</g>
<defs>
<clipPath id="clip0_1:67">
<rect width="19" height="19" fill="white" transform="translate(0.810059 0.00146484)"/>
</clipPath>
</defs>
</svg>
