<svg width="17" height="17" viewBox="0 0 17 17" fill="none" xmlns="http://www.w3.org/2000/svg">
<path d="M15.9743 0.83645C15.4397 0.301817 14.7146 0.00146484 13.9586 0.00146484C13.2025 0.00146484 12.4774 0.301817 11.9428 0.83645L10.3732 2.40611L10.3628 2.39576C10.2334 2.26626 10.0797 2.16354 9.91049 2.09346C9.74131 2.02337 9.55999 1.9873 9.37688 1.9873C9.19376 1.9873 9.01244 2.02337 8.84327 2.09346C8.67409 2.16354 8.52038 2.26626 8.39091 2.39576L7.92481 2.86267C7.66354 3.12414 7.51678 3.47865 7.51678 3.84829C7.51678 4.21793 7.66354 4.57245 7.92481 4.83391L7.93437 4.84427L2.53245 10.2465C2.36598 10.4129 2.23394 10.6106 2.14385 10.8281C2.05376 11.0456 2.00739 11.2787 2.00739 11.5142V12.0623L0.98756 13.9324C0.321482 15.1539 1.65762 16.4901 2.87903 15.824L4.74899 14.8041H5.29715C5.77232 14.8039 6.22797 14.615 6.56397 14.279L11.9667 8.8768L11.9763 8.88636C12.1057 9.01585 12.2594 9.11857 12.4286 9.18866C12.5978 9.25874 12.7791 9.29481 12.9622 9.29481C13.1453 9.29481 13.3267 9.25874 13.4958 9.18866C13.665 9.11857 13.8187 9.01585 13.9482 8.88636L14.4151 8.42024C14.5446 8.29076 14.6473 8.13704 14.7174 7.96785C14.7875 7.79867 14.8235 7.61734 14.8235 7.43422C14.8235 7.25109 14.7875 7.06976 14.7174 6.90058C14.6473 6.7314 14.5446 6.57768 14.4151 6.4482L14.4055 6.43784L15.9751 4.86818C16.5097 4.33353 16.8101 3.60841 16.8101 2.85231C16.8101 2.09622 16.5097 1.37109 15.9751 0.83645H15.9743ZM8.77972 5.68886L11.1221 8.03141L5.72022 13.4336C5.66469 13.4892 5.59874 13.5333 5.52614 13.5634C5.45355 13.5935 5.37573 13.6089 5.29715 13.6089H4.59681C4.49684 13.609 4.39849 13.6342 4.31078 13.6822L2.30697 14.7754C2.26913 14.7987 2.2242 14.8078 2.18029 14.8009C2.13842 14.7926 2.10007 14.7717 2.07034 14.7411C2.03972 14.7114 2.01888 14.673 2.01058 14.6312C2.00394 14.5872 2.01327 14.5422 2.03687 14.5045L3.13001 12.5006C3.1777 12.4128 3.20263 12.3144 3.20251 12.2145V11.5142C3.20265 11.3557 3.2657 11.2038 3.37779 11.0919L8.77972 5.68966V5.68886Z" fill="white"/>
</svg>
