<svg width="57" height="28" viewBox="0 0 57 28" fill="none" xmlns="http://www.w3.org/2000/svg">
<rect width="57" height="27.8667" rx="13.9333" transform="matrix(-1 -8.74228e-08 -8.74228e-08 1 57 2.38419e-06)" fill="white"/>
<circle r="11.4" transform="matrix(-1 -8.74228e-08 -8.74228e-08 1 43.0667 13.9333)" fill="black"/>
<path d="M43.0584 13.9418C42.2961 13.1792 41.7769 12.2077 41.5666 11.1501C41.3562 10.0925 41.464 8.99632 41.8764 8C40.7006 8.23147 39.6205 8.80843 38.7744 9.65706C36.4085 12.023 36.4085 15.8594 38.7744 18.2253C41.1409 20.5919 44.9765 20.5913 47.343 18.2253C48.1914 17.3792 48.7683 16.2994 49 15.1239C48.0037 15.5362 46.9075 15.644 45.85 15.4336C44.7925 15.2232 43.821 14.7041 43.0584 13.9418V13.9418Z" fill="white"/>
</svg>
