<svg width="31" height="28" viewBox="0 0 31 28" fill="none" xmlns="http://www.w3.org/2000/svg">
<path d="M13.0156 17.9965C13.0156 17.7315 13.1209 17.4774 13.3082 17.29C13.4956 17.1027 13.7497 16.9974 14.0147 16.9974H22.0078V2.01039C22.0078 1.48042 21.7973 0.972152 21.4225 0.597404C21.0478 0.222656 20.5395 0.012125 20.0095 0.012125H6.8909L0.0268481 6.86618V25.9896C0.0268481 26.5196 0.237379 27.0278 0.612127 27.4026C0.986875 27.7773 1.49514 27.9879 2.02512 27.9879H20.0095C20.5395 27.9879 21.0478 27.7773 21.4225 27.4026C21.7973 27.0278 22.0078 26.5196 22.0078 25.9896V18.9957H14.0147C13.7497 18.9957 13.4956 18.8904 13.3082 18.703C13.1209 18.5157 13.0156 18.2615 13.0156 17.9965ZM8.01992 8.0052H2.02512V7.68547L7.71019 2.01039H8.01992V8.0052Z" fill="white"/>
<path d="M25.3249 12.3514C25.1338 12.1877 24.8879 12.1022 24.6365 12.1119C24.385 12.1216 24.1465 12.2258 23.9685 12.4038C23.7906 12.5817 23.6863 12.8202 23.6766 13.0717C23.6669 13.3232 23.7525 13.569 23.9161 13.7602L27.1633 16.9974H22.0078V18.9956H27.1933L23.9161 22.2728C23.8115 22.3624 23.7266 22.4726 23.6666 22.5965C23.6067 22.7205 23.573 22.8555 23.5676 22.9931C23.5623 23.1307 23.5855 23.2679 23.6357 23.3961C23.686 23.5243 23.7622 23.6408 23.8595 23.7382C23.9569 23.8355 24.0734 23.9117 24.2016 23.962C24.3298 24.0122 24.467 24.0354 24.6046 24.0301C24.7422 24.0247 24.8772 23.991 25.0012 23.9311C25.1251 23.8711 25.2354 23.7862 25.3249 23.6816L31 17.9965L25.3249 12.3514Z" fill="white"/>
</svg>
