<svg width="16" height="15" viewBox="0 0 16 15" fill="none" xmlns="http://www.w3.org/2000/svg">
<path d="M1.07795 14.9996C1.27033 15.0055 1.45882 14.9422 1.61205 14.8202C1.76528 14.6982 1.874 14.525 1.92011 14.3293C2.2993 12.7557 3.13431 11.3436 4.31047 10.2871C5.48663 9.2305 6.94626 8.5812 8.48889 8.42837V9.41626C8.48903 9.72523 8.5762 10.0273 8.73948 10.2846C8.90277 10.5419 9.13491 10.7431 9.40684 10.8628C9.70171 11.0048 10.0295 11.0545 10.3507 11.006C10.6719 10.9575 10.9729 10.8128 11.2175 10.5894L15.4788 6.69955C15.6422 6.55381 15.7734 6.37265 15.8634 6.16858C15.9534 5.9645 16 5.7424 16 5.51761C16 5.29282 15.9534 5.07071 15.8634 4.86664C15.7734 4.66256 15.6422 4.4814 15.4788 4.33566L11.2175 0.437006C10.9697 0.209713 10.6637 0.0635038 10.3374 0.0164717C10.0111 -0.0305604 9.67877 0.0236492 9.38157 0.172392C9.10965 0.29216 8.8775 0.493297 8.71422 0.750613C8.55093 1.00793 8.46376 1.30999 8.46363 1.61895V2.65095C6.17616 2.83618 4.03806 3.91269 2.47124 5.66805C0.904411 7.42341 0.0226681 9.7301 -1.32491e-07 12.133C0.00115319 12.8735 0.0888268 13.6111 0.261067 14.3293C0.307175 14.525 0.415894 14.6982 0.569122 14.8202C0.72235 14.9422 0.910842 15.0055 1.10322 14.9996H1.07795Z" fill="white"/>
</svg>
