<svg width="57" height="28" viewBox="0 0 57 28" fill="none" xmlns="http://www.w3.org/2000/svg">
<rect width="57" height="27.8667" rx="13.9333" transform="matrix(1 0 0 -1 0 27.8667)" fill="white"/>
<circle r="11.4" transform="matrix(1 0 0 -1 13.9333 13.9334)" fill="#3CA939"/>
<path d="M13.8193 19.2744C13.939 19.2744 14.0538 19.3219 14.1385 19.4066C14.2231 19.4912 14.2707 19.606 14.2707 19.7258V21.3101C14.2707 21.4298 14.2231 21.5446 14.1385 21.6293C14.0538 21.7139 13.939 21.7615 13.8193 21.7615C13.6996 21.7615 13.5848 21.7139 13.5002 21.6293C13.4155 21.5446 13.3679 21.4298 13.3679 21.3101V19.7258C13.3679 19.606 13.4155 19.4912 13.5002 19.4066C13.5848 19.3219 13.6996 19.2744 13.8193 19.2744Z" fill="white"/>
<path d="M13.8193 8.82053C13.6996 8.82053 13.5848 8.77297 13.5002 8.68832C13.4155 8.60367 13.3679 8.48886 13.3679 8.36915V6.78482C13.3679 6.66511 13.4155 6.5503 13.5002 6.46565C13.5848 6.381 13.6996 6.33344 13.8193 6.33344C13.939 6.33344 14.0538 6.381 14.1385 6.46565C14.2231 6.5503 14.2707 6.66511 14.2707 6.78482V8.36915C14.2707 8.48886 14.2231 8.60367 14.1385 8.68832C14.0538 8.77297 13.939 8.82053 13.8193 8.82053Z" fill="white"/>
<path d="M9.4861 17.7442C9.57244 17.6702 9.68352 17.6316 9.79712 17.636C9.91072 17.6404 10.0185 17.6875 10.0989 17.7678C10.1793 17.8482 10.2263 17.956 10.2307 18.0696C10.2351 18.1832 10.1965 18.2943 10.1225 18.3806L9.00312 19.5C8.91677 19.574 8.8057 19.6126 8.6921 19.6082C8.5785 19.6038 8.47074 19.5567 8.39035 19.4764C8.30996 19.396 8.26287 19.2882 8.25848 19.1746C8.2541 19.061 8.29274 18.9499 8.36668 18.8636L9.4861 17.7442Z" fill="white"/>
<path d="M18.1525 10.3507C18.0662 10.4246 17.9551 10.4632 17.8415 10.4589C17.7279 10.4545 17.6201 10.4074 17.5397 10.327C17.4593 10.2466 17.4122 10.1388 17.4079 10.0252C17.4035 9.91163 17.4421 9.80056 17.5161 9.71421L18.6355 8.5948C18.7218 8.52085 18.8329 8.48221 18.9465 8.4866C19.0601 8.49099 19.1679 8.53808 19.2482 8.61847C19.3286 8.69885 19.3757 8.80662 19.3801 8.92022C19.3845 9.03382 19.3459 9.14489 19.2719 9.23124L18.1525 10.3507Z" fill="white"/>
<path d="M8.59233 14.0474C8.59233 14.1671 8.54478 14.2819 8.46013 14.3666C8.37548 14.4512 8.26067 14.4988 8.14096 14.4988H6.55663C6.43691 14.4988 6.3221 14.4512 6.23745 14.3666C6.1528 14.2819 6.10525 14.1671 6.10525 14.0474C6.10525 13.9277 6.1528 13.8129 6.23745 13.7282C6.3221 13.6436 6.43691 13.596 6.55663 13.596H8.14096C8.26067 13.596 8.37548 13.6436 8.46013 13.7282C8.54478 13.8129 8.59233 13.9277 8.59233 14.0474Z" fill="white"/>
<path d="M21.0819 14.4988H19.4976C19.3779 14.4988 19.2631 14.4512 19.1784 14.3666C19.0938 14.2819 19.0462 14.1671 19.0462 14.0474C19.0462 13.9277 19.0938 13.8129 19.1784 13.7282C19.2631 13.6436 19.3779 13.596 19.4976 13.596H21.0819C21.2017 13.596 21.3165 13.6436 21.4011 13.7282C21.4858 13.8129 21.5333 13.9277 21.5333 14.0474C21.5333 14.1671 21.4858 14.2819 21.4011 14.3666C21.3165 14.4512 21.2017 14.4988 21.0819 14.4988Z" fill="white"/>
<path d="M9.4861 10.3507L8.36668 9.23124C8.29274 9.14489 8.2541 9.03382 8.25848 8.92022C8.26287 8.80662 8.30996 8.69885 8.39035 8.61847C8.47074 8.53808 8.5785 8.49099 8.6921 8.4866C8.8057 8.48221 8.91677 8.52085 9.00312 8.5948L10.1225 9.71421C10.1965 9.80056 10.2351 9.91163 10.2307 10.0252C10.2263 10.1388 10.1793 10.2466 10.0989 10.327C10.0185 10.4074 9.91072 10.4545 9.79712 10.4589C9.68352 10.4632 9.57244 10.4246 9.4861 10.3507Z" fill="white"/>
<path d="M18.1525 17.7442L19.2719 18.8636C19.3459 18.9499 19.3845 19.061 19.3801 19.1746C19.3757 19.2882 19.3286 19.396 19.2482 19.4764C19.1679 19.5567 19.0601 19.6038 18.9465 19.6082C18.8329 19.6126 18.7218 19.574 18.6355 19.5L17.5161 18.3806C17.4421 18.2943 17.4035 18.1832 17.4079 18.0696C17.4122 17.956 17.4593 17.8482 17.5397 17.7678C17.6201 17.6875 17.7279 17.6404 17.8415 17.636C17.9551 17.6316 18.0662 17.6702 18.1525 17.7442Z" fill="white"/>
<path d="M13.8193 9.53366C16.3122 9.53366 18.3331 11.5545 18.3331 14.0474C18.3331 16.5403 16.3122 18.5612 13.8193 18.5612C11.3265 18.5612 9.30558 16.5403 9.30558 14.0474C9.30558 11.5545 11.3265 9.53366 13.8193 9.53366Z" fill="white"/>
</svg>
