<svg width="14" height="14" viewBox="0 0 14 14" fill="none" xmlns="http://www.w3.org/2000/svg">
<path d="M0 1.37931V11.0345L3.31035 8.55172C3.54897 8.37241 3.83931 8.27586 4.13793 8.27586H9.65517C10.021 8.27586 10.3718 8.13054 10.6305 7.87187C10.8892 7.6132 11.0345 7.26237 11.0345 6.89655V1.37931C11.0345 1.01349 10.8892 0.662661 10.6305 0.403991C10.3718 0.14532 10.021 0 9.65517 0H1.37931C1.01349 0 0.662661 0.14532 0.403991 0.403991C0.14532 0.662661 0 1.01349 0 1.37931V1.37931ZM1.37931 8.27586V1.37931H9.65517V6.89655H3.67862C3.38005 6.89575 3.08941 6.99263 2.85103 7.17241L1.37931 8.27586Z" fill="#EEEEEE"/>
<path d="M13.7931 13.7931V4.82759C13.7931 4.46177 13.6478 4.11094 13.3891 3.85227C13.1304 3.5936 12.7796 3.44828 12.4138 3.44828V11.0345L10.9421 9.93104C10.7037 9.75125 10.413 9.65437 10.1145 9.65518H3.44827C3.44827 9.83631 3.48395 10.0157 3.55326 10.183C3.62258 10.3504 3.72418 10.5024 3.85226 10.6305C3.98034 10.7586 4.1324 10.8602 4.29974 10.9295C4.46709 10.9988 4.64645 11.0345 4.82758 11.0345H9.65517C9.95379 11.0345 10.2441 11.131 10.4828 11.3103L13.7931 13.7931Z" fill="#EEEEEE"/>
</svg>
