<svg width="20" height="20" viewBox="0 0 20 20" fill="none" xmlns="http://www.w3.org/2000/svg">
<path fill-rule="evenodd" clip-rule="evenodd" d="M10 0C4.47727 0 0 4.47727 0 10C0 15.5227 4.47727 20 10 20C15.5227 20 20 15.5227 20 10C20 4.47727 15.5227 0 10 0ZM6.36364 9.09091C6.12253 9.09091 5.8913 9.18669 5.72081 9.35718C5.55032 9.52766 5.45455 9.75889 5.45455 10C5.45455 10.2411 5.55032 10.4723 5.72081 10.6428C5.8913 10.8133 6.12253 10.9091 6.36364 10.9091H13.6364C13.8775 10.9091 14.1087 10.8133 14.2792 10.6428C14.4497 10.4723 14.5455 10.2411 14.5455 10C14.5455 9.75889 14.4497 9.52766 14.2792 9.35718C14.1087 9.18669 13.8775 9.09091 13.6364 9.09091H6.36364Z" fill="#3CA939"/>
</svg>
