<svg width="17" height="18" viewBox="0 0 17 18" fill="none" xmlns="http://www.w3.org/2000/svg">
<path d="M8.21566 12.0699L5.43479 9.11907C5.93167 8.19082 6.6564 7.2713 7.60806 6.36344C8.83516 5.1905 11.0011 3.20777 14.105 0.415235C14.4195 0.132191 14.8228 -0.0149897 15.2348 0.00292796C15.6468 0.0208456 16.0374 0.202551 16.329 0.511951C16.6206 0.821351 16.7918 1.23581 16.8087 1.673C16.8256 2.11019 16.6869 2.53813 16.4201 2.87181C13.7847 6.17119 11.9171 8.46949 10.8154 9.76574C9.95977 10.7726 9.09321 11.5407 8.21566 12.0699V12.0699ZM4.17474 10.5299L6.88791 13.4079L5.63793 15.2586L0.810059 17.0015L2.43064 11.8553L4.17474 10.5299V10.5299Z" fill="white"/>
</svg>
