<svg width="18" height="19" viewBox="0 0 18 19" fill="none" xmlns="http://www.w3.org/2000/svg">
<path fill-rule="evenodd" clip-rule="evenodd" d="M13.4823 2.21793C13.6767 1.80794 13.9531 1.60294 14.3102 1.60294C14.6382 1.60294 14.8921 1.759 15.068 2.06981C15.2453 2.38193 15.3339 2.80647 15.3339 3.3474C15.3339 3.93329 15.2307 4.4028 15.0231 4.75857C14.8168 5.11302 14.5403 5.29024 14.1938 5.29024C13.8804 5.29024 13.6436 5.12492 13.4836 4.7956H13.473V5.20559H12.6888V0H13.473V2.21793H13.4836H13.4823ZM13.4611 3.67275C13.4534 3.87023 13.5025 4.06579 13.6026 4.23616C13.6965 4.38561 13.8182 4.45967 13.965 4.45967C14.1449 4.45967 14.2824 4.36445 14.3803 4.174C14.4795 3.98223 14.5298 3.7111 14.5298 3.36062C14.5298 3.06966 14.4835 2.84483 14.3922 2.68083C14.3036 2.51683 14.1753 2.43351 14.0087 2.43351C13.85 2.43351 13.719 2.51551 13.6159 2.67818C13.5051 2.87084 13.4515 3.09101 13.4611 3.31301V3.67275V3.67275ZM3.58954 8.85454L0.785714 6.04145L1.66125 5.16592L2.99174 6.48848V4.49141C2.9907 4.24966 3.03735 4.01008 3.12902 3.78638C3.22069 3.56269 3.35558 3.35926 3.52597 3.18777C3.69636 3.01627 3.89891 2.88007 4.12201 2.78695C4.34511 2.69384 4.58438 2.64564 4.82613 2.64512H7.92754V3.84204H4.82613C4.65866 3.84956 4.50062 3.92168 4.38521 4.04327C4.26979 4.16485 4.20598 4.32642 4.20718 4.49406L4.21643 6.4779L5.47154 5.2294L6.33914 6.097L3.58822 8.85454H3.58954ZM10.5145 5.19766H11.3662V2.93608C11.3662 1.86216 10.9496 1.32256 10.1177 1.32256C9.93915 1.32256 9.74077 1.3543 9.52254 1.41911C9.34159 1.46718 9.16869 1.5416 9.00939 1.63997V2.51948C9.32284 2.251 9.65348 2.11742 10.0013 2.11742C10.3465 2.11742 10.5198 2.32374 10.5198 2.7377L9.72622 2.87392C9.057 2.98766 8.72107 3.41088 8.72107 4.1449C8.72107 4.49274 8.80175 4.77047 8.9631 4.97944C9.04202 5.08092 9.14405 5.16207 9.26069 5.21614C9.37733 5.2702 9.50519 5.29561 9.63364 5.29024C10.0172 5.29024 10.3068 5.07863 10.5026 4.65541H10.5145V5.19766ZM10.5198 3.40559V3.66085C10.5274 3.86481 10.472 4.06618 10.361 4.23748C10.3167 4.30693 10.2555 4.36399 10.1831 4.40332C10.1107 4.44264 10.0295 4.46294 9.94709 4.46232C9.89226 4.46459 9.83763 4.45447 9.78726 4.43272C9.73688 4.41097 9.69206 4.37814 9.65612 4.33667C9.5833 4.24323 9.54583 4.12706 9.55032 4.00868C9.55032 3.71507 9.6958 3.54446 9.98941 3.4942L10.5184 3.40559H10.5198ZM7.39851 15.7781H6.54678V15.2359H6.53488C6.33914 15.6591 6.0495 15.8707 5.66596 15.8707C5.53751 15.8761 5.40965 15.8507 5.29301 15.7966C5.17637 15.7426 5.07434 15.6614 4.99542 15.5599C4.83407 15.351 4.75339 15.0732 4.75339 14.7267C4.75339 13.9914 5.08932 13.5681 5.75854 13.4544L6.55208 13.3182C6.55208 12.9042 6.38014 12.6966 6.03363 12.6966C5.6858 12.6966 5.35516 12.8315 5.04171 13.1V12.2205C5.16735 12.1371 5.33797 12.0631 5.55486 11.9996C5.77309 11.9348 5.97147 11.903 6.15002 11.903C6.98323 11.903 7.39851 12.4413 7.39851 13.5166V15.7781V15.7781ZM6.55208 14.2413V13.9861L6.02305 14.076C5.72944 14.1249 5.58264 14.2955 5.58264 14.5892C5.58264 14.7214 5.61835 14.8312 5.68844 14.9172C5.72438 14.9586 5.7692 14.9914 5.81958 15.0132C5.86995 15.035 5.92458 15.0451 5.97941 15.0428C6.06157 15.0432 6.14251 15.0228 6.21466 14.9835C6.28681 14.9442 6.34784 14.8872 6.39205 14.818C6.49785 14.6645 6.55075 14.4741 6.55075 14.2413H6.55208ZM10.3901 15.8707C10.8147 15.8707 11.1414 15.794 11.3662 15.6419V14.7029C11.1605 14.8735 10.9033 14.97 10.6361 14.9767C10.5115 14.9828 10.3872 14.9604 10.2726 14.9111C10.158 14.8618 10.0561 14.787 9.97486 14.6923C9.81615 14.5005 9.73548 14.236 9.73548 13.9014C9.73548 13.5576 9.8188 13.2878 9.98544 13.092C10.0695 12.9945 10.1746 12.9172 10.2928 12.8662C10.411 12.8151 10.5392 12.7915 10.6679 12.7971C10.9245 12.7971 11.1572 12.8883 11.3662 13.0709V12.0803C11.1956 11.9612 10.9192 11.903 10.5383 11.903C9.98676 11.903 9.54503 12.0882 9.21439 12.4612C8.88507 12.8315 8.72107 13.3367 8.72107 13.9795C8.72107 14.5349 8.87449 14.9899 9.18265 15.3417C9.48948 15.6948 9.89286 15.8707 10.3901 15.8707V15.8707ZM0.785714 10.5805L2.10827 9.25792H14.0113L15.3339 10.5805V17.1933L14.0113 18.5158H2.10827L0.785714 17.1933V10.5805ZM2.10827 10.5805V17.1933H14.0113V10.5805H2.10827ZM6.07595 7.93536L7.39851 6.6128H16.6564L17.979 7.93536V14.5482L16.6564 15.8707V7.93536H6.07595Z" fill="white"/>
</svg>
