<svg width="31" height="38" viewBox="0 0 31 38" fill="none" xmlns="http://www.w3.org/2000/svg">
<path d="M16.1911 3.53755C16.1911 2.59933 16.4921 1.69954 17.0279 1.03612C17.5638 0.372705 18.2905 0 19.0483 0L26.6677 0C27.678 0 28.647 0.49694 29.3615 1.3815C30.0759 2.26606 30.4773 3.46577 30.4773 4.71673V33.0171C30.4773 34.268 30.0759 35.4678 29.3615 36.3523C28.647 37.2369 27.678 37.7338 26.6677 37.7338H3.80966C2.79928 37.7338 1.83028 37.2369 1.11582 36.3523C0.401374 35.4678 0 34.268 0 33.0171V4.71673C0 3.46577 0.401374 2.26606 1.11582 1.3815C1.83028 0.49694 2.79928 0 3.80966 0L15.2387 0C14.6405 0.985796 14.2862 2.20979 14.2862 3.53755V21.9163L9.24606 15.6737C9.1575 15.564 9.05238 15.4771 8.93668 15.4177C8.82098 15.3584 8.69698 15.3279 8.57175 15.3279C8.44651 15.3279 8.32251 15.3584 8.20681 15.4177C8.09111 15.4771 7.98599 15.564 7.89743 15.6737C7.80888 15.7833 7.73864 15.9135 7.69072 16.0567C7.64279 16.2 7.61813 16.3535 7.61813 16.5085C7.61813 16.6636 7.64279 16.8171 7.69072 16.9604C7.73864 17.1036 7.80888 17.2338 7.89743 17.3434L14.5643 25.5977C14.6528 25.7075 14.7579 25.7946 14.8736 25.8541C14.9893 25.9135 15.1134 25.9441 15.2387 25.9441C15.3639 25.9441 15.488 25.9135 15.6037 25.8541C15.7194 25.7946 15.8245 25.7075 15.913 25.5977L22.5799 17.3434C22.7587 17.122 22.8592 16.8217 22.8592 16.5085C22.8592 16.1954 22.7587 15.8951 22.5799 15.6737C22.401 15.4523 22.1585 15.3279 21.9056 15.3279C21.6527 15.3279 21.4101 15.4523 21.2313 15.6737L16.1911 21.9163V3.53755Z" fill="white"/>
</svg>
