<svg width="13" height="14" viewBox="0 0 13 14" fill="none" xmlns="http://www.w3.org/2000/svg">
<path d="M5.69379 0C8.83847 0 11.388 2.67927 11.388 5.98451C11.388 7.1589 11.0663 8.25441 10.5102 9.17873C10.5143 9.18059 10.5183 9.18228 10.5224 9.18422L13 11.7879L10.8954 14L8.32852 11.3016C8.32928 11.2978 8.33031 11.294 8.33111 11.2902C7.54263 11.7241 6.64543 11.9695 5.69378 11.9695C2.54909 11.9695 2.69221e-07 9.28978 2.69221e-07 5.98453C3.35689e-05 2.67927 2.54913 0 5.69379 0ZM5.69379 2.65857C3.94622 2.65857 2.52987 4.14769 2.52987 5.98451C2.52987 7.82133 3.94622 9.31046 5.69379 9.31046C7.44138 9.31046 8.85817 7.82133 8.85817 5.98451C8.85817 4.14769 7.44139 2.65857 5.69379 2.65857Z" fill="white"/>
</svg>
