<svg width="21" height="19" viewBox="0 0 21 19" fill="none" xmlns="http://www.w3.org/2000/svg">
<path d="M0 2.53355C0 1.86161 0.260305 1.21719 0.723651 0.742059C1.187 0.266926 1.81543 0 2.4707 0H17.2949C17.9502 0 18.5786 0.266926 19.0419 0.742059C19.5053 1.21719 19.7656 1.86161 19.7656 2.53355V8.95609L19.2591 8.43671C19.001 8.17204 18.6946 7.96209 18.3574 7.81885C18.0201 7.67561 17.6587 7.60188 17.2937 7.60188C16.9286 7.60188 16.5672 7.67561 16.23 7.81885C15.8927 7.96209 15.5863 8.17204 15.3282 8.43671L10.6969 13.1871C10.4386 13.4513 10.2337 13.7653 10.0939 14.1109C9.95424 14.4566 9.88249 14.8271 9.8828 15.2013H2.4707C1.81543 15.2013 1.187 14.9344 0.723651 14.4592C0.260305 13.9841 0 13.3397 0 12.6677V2.53355ZM16.2028 9.33105C16.4924 9.03439 16.885 8.86775 17.2943 8.86775C17.7036 8.86775 18.0962 9.03439 18.3857 9.33105L20.5476 11.5479C20.691 11.695 20.8048 11.8695 20.8824 12.0617C20.96 12.2538 21 12.4598 21 12.6677C21 12.8757 20.96 13.0817 20.8824 13.2738C20.8048 13.4659 20.691 13.6405 20.5476 13.7876L17.3653 17.0495L13.0194 12.5955L16.2028 9.33105V9.33105ZM12.2806 13.3531L11.5703 14.0815C11.4269 14.2285 11.3131 14.4031 11.2354 14.5952C11.1578 14.7874 11.1179 14.9933 11.1179 15.2013C11.1179 15.4093 11.1578 15.6152 11.2354 15.8073C11.3131 15.9995 11.4269 16.1741 11.5703 16.3211L13.7321 18.5367C14.0217 18.8334 14.4143 19 14.8236 19C15.2329 19 15.6255 18.8334 15.915 18.5367L16.6266 17.8083L12.2806 13.3531Z" fill="#FFFAFA"/>
</svg>
