<svg width="16" height="17" viewBox="0 0 16 17" fill="none" xmlns="http://www.w3.org/2000/svg">
<path d="M0.830811 1.23719C0.830811 0.974256 0.940304 0.722088 1.1352 0.536164C1.3301 0.35024 1.59444 0.245789 1.87007 0.245789H14.8609C15.1365 0.245789 15.4009 0.35024 15.5958 0.536164C15.7907 0.722088 15.9001 0.974256 15.9001 1.23719V3.22C15.9001 3.48294 15.7907 3.7351 15.5958 3.92103C15.4009 4.10695 15.1365 4.2114 14.8609 4.2114C14.5853 4.2114 14.3209 4.10695 14.126 3.92103C13.9311 3.7351 13.8216 3.48294 13.8216 3.22V2.2286H9.40474V14.1254H10.444C10.7196 14.1254 10.984 14.2299 11.1789 14.4158C11.3738 14.6017 11.4833 14.8539 11.4833 15.1168C11.4833 15.3798 11.3738 15.6319 11.1789 15.8179C10.984 16.0038 10.7196 16.1082 10.444 16.1082H6.28695C6.01132 16.1082 5.74698 16.0038 5.55208 15.8179C5.35718 15.6319 5.24768 15.3798 5.24768 15.1168C5.24768 14.8539 5.35718 14.6017 5.55208 14.4158C5.74698 14.2299 6.01132 14.1254 6.28695 14.1254H7.32621V2.2286H2.90934V3.22C2.90934 3.48294 2.79985 3.7351 2.60495 3.92103C2.41005 4.10695 2.14571 4.2114 1.87007 4.2114C1.59444 4.2114 1.3301 4.10695 1.1352 3.92103C0.940304 3.7351 0.830811 3.48294 0.830811 3.22V1.23719Z" fill="white"/>
</svg>
